# xmcd
# Track frame offsets: 
#        182
#        15130
#        27107
#        39695
#        52175
#        62152
#        71392
#        83925
#        94872
#        107325
#        118695
#        130832
# Disc length: 1868 seconds
# Revision: 2
# Processed by: cddbd v1.4b41PL1 Copyright (c) Steve Scherf et al.
# Submitted via: ExactAudioCopy v0.90a7
#
DISCID=96074a0c
DTITLE=Gladys Knight - Legends In Music
DYEAR=1900
DGENRE=
TTITLE0=Guess Who
TTITLE1=Darlin'
TTITLE2=Letter Full Of Tears
TTITLE3=You Broke Your Promise
TTITLE4=Operator
TTITLE5=Every Beat Of My Heart
TTITLE6=Come See About Me
TTITLE7=One More Lonely Night
TTITLE8=Really Didn't Mean It
TTITLE9=How Do You Say Goodbye
TTITLE10=Jungle Love
TTITLE11=Room In Your Heart
EXTD=
EXTT0=
EXTT1=
EXTT2=
EXTT3=
EXTT4=
EXTT5=
EXTT6=
EXTT7=
EXTT8=
EXTT9=
EXTT10=
EXTT11=
PLAYORDER=
